<?xml version="1.0" standalone="no"?>
<!DOCTYPE svg PUBLIC "-//W3C//DTD SVG 20010904//EN"
 "http://www.w3.org/TR/2001/REC-SVG-20010904/DTD/svg10.dtd">
<svg version="1.0" xmlns="http://www.w3.org/2000/svg"
 width="260.000000pt" height="260.000000pt" viewBox="0 0 260.000000 260.000000"
 preserveAspectRatio="xMidYMid meet">
<metadata>
Created by potrace 1.11, written by Peter Selinger 2001-2013
</metadata>
<g transform="translate(0.000000,260.000000) scale(0.100000,-0.100000)"
fill="#000000" stroke="none">
<path d="M1575 2459 c-185 -27 -302 -95 -360 -210 -43 -83 -55 -155 -62 -341
l-6 -178 284 0 284 0 2 138 c2 210 25 262 109 249 47 -8 72 -31 80 -76 12 -60
11 -295 -1 -355 -21 -104 -58 -122 -262 -125 l-63 -1 0 -165 0 -165 38 -1
c209 -4 271 -43 290 -187 12 -85 6 -439 -7 -490 -15 -53 -58 -79 -115 -68 -64
12 -68 31 -70 376 l-1 195 -280 0 -280 0 -1 -168 c-1 -278 28 -451 89 -531
121 -157 311 -229 595 -225 366 5 556 137 619 430 22 103 25 490 5 604 -24
131 -85 216 -191 263 l-39 18 42 27 c92 58 154 139 171 222 14 65 14 262 1
335 -40 218 -151 347 -346 403 -120 35 -378 47 -525 26z"/>
<path d="M610 2341 c-118 -121 -258 -202 -451 -259 l-94 -28 0 -123 c0 -76 4
-125 10 -126 5 -2 62 -6 125 -9 134 -7 178 -17 208 -48 46 -50 44 -13 45 -915
l0 -663 283 0 284 0 0 1125 0 1125 -167 -1 -168 -1 -75 -77z"/>
</g>
</svg>
